<svg xmlns="http://www.w3.org/2000/svg" xmlns:xlink="http://www.w3.org/1999/xlink" width="500" zoomAndPan="magnify" viewBox="0 0 375 374.999991" height="500" preserveAspectRatio="xMidYMid meet" version="1.0"><defs><g/><clipPath id="88cfe724cd"><path d="M 55.542969 117 L 321.792969 117 L 321.792969 213.707031 L 55.542969 213.707031 Z M 55.542969 117 " clip-rule="nonzero"/></clipPath></defs><rect x="-37.5" width="450" fill="#ffffff" y="-37.499999" height="449.999989" fill-opacity="1"/><rect x="-37.5" width="450" fill="#052844" y="-37.499999" height="449.999989" fill-opacity="1"/><g clip-path="url(#88cfe724cd)"><path fill="#ffffff" d="M 321.378906 136.878906 C 316.414062 134.75 311.273438 132.976562 305.953125 131.382812 C 303.292969 130.496094 300.632812 129.960938 297.972656 129.074219 C 295.3125 128.367188 292.472656 127.835938 289.8125 127.125 C 278.816406 124.640625 267.644531 122.867188 256.472656 121.273438 C 233.949219 118.433594 211.25 117.195312 188.550781 117.015625 C 165.851562 117.015625 142.972656 118.257812 120.628906 121.09375 C 109.453125 122.515625 98.28125 124.464844 87.285156 126.949219 C 84.625 127.65625 81.789062 128.1875 79.128906 128.898438 C 76.46875 129.609375 73.808594 130.316406 71.148438 131.203125 C 65.828125 132.800781 60.683594 134.574219 55.71875 136.703125 C 77.886719 132.976562 99.878906 131.203125 122.046875 129.960938 C 141.730469 128.898438 161.417969 128.367188 181.277344 128.367188 L 180.039062 169.863281 C 179.859375 180.328125 168.15625 186.535156 159.464844 180.683594 C 147.761719 172.703125 141.023438 163.304688 139.070312 159.757812 C 139.25 159.757812 146.519531 161.707031 150.777344 162.238281 C 141.910156 156.5625 134.28125 145.035156 133.042969 137.765625 C 125.769531 147.34375 127.011719 164.191406 128.429688 171.816406 L 132.6875 165.253906 C 142.261719 193.628906 185.003906 207.285156 188.90625 213.847656 C 192.804688 207.285156 235.546875 193.628906 245.121094 165.253906 L 249.378906 171.816406 C 250.796875 164.191406 252.039062 147.34375 244.769531 137.765625 C 243.347656 145.035156 235.902344 156.386719 227.035156 162.238281 C 231.289062 161.707031 238.5625 159.757812 238.738281 159.757812 C 236.609375 163.304688 230.046875 172.703125 218.167969 180.683594 C 209.476562 186.535156 197.773438 180.328125 197.59375 169.863281 L 196.351562 128.367188 C 216.039062 128.542969 235.722656 128.898438 255.410156 129.960938 C 277.222656 131.382812 299.210938 133.15625 321.378906 136.878906 Z M 321.378906 136.878906 " fill-opacity="1" fill-rule="nonzero"/></g><path fill="#ffffff" d="M 188.371094 45.722656 C 191.566406 45.722656 194.046875 48.382812 194.046875 51.578125 C 193.871094 54.769531 191.210938 57.074219 188.019531 56.898438 C 185.003906 56.71875 182.699219 54.238281 182.699219 51.222656 C 182.699219 48.207031 185.179688 45.722656 188.371094 45.722656 Z M 181.457031 111.339844 C 183.761719 111.339844 186.066406 111.339844 188.371094 111.339844 C 190.679688 111.339844 192.984375 111.339844 195.289062 111.339844 L 194.578125 84.917969 L 219.40625 82.789062 L 219.40625 75.695312 L 194.226562 73.390625 L 194.046875 68.777344 C 201.320312 66.472656 206.460938 59.558594 206.460938 51.578125 C 206.460938 41.113281 197.773438 32.957031 187.132812 33.488281 C 178.265625 34.019531 170.992188 41.113281 170.285156 49.804688 C 169.574219 58.492188 174.894531 66.117188 182.699219 68.601562 L 182.519531 73.210938 L 157.335938 75.519531 L 157.335938 82.613281 L 182.164062 84.738281 Z M 181.457031 111.339844 " fill-opacity="1" fill-rule="nonzero"/><g fill="#ffffff" fill-opacity="1"><g transform="translate(4.061205, 266.778719)"><g><path d="M 16.453125 -28.265625 C 12.742188 -28.265625 9.5625 -27.039062 6.90625 -24.59375 C 4 -21.90625 2.546875 -18.398438 2.546875 -14.078125 C 2.546875 -9.078125 4.257812 -5.21875 7.6875 -2.5 C 10.1875 -0.519531 13.0625 0.46875 16.3125 0.46875 C 19.945312 0.46875 23.078125 -0.769531 25.703125 -3.25 C 28.640625 -5.988281 30.109375 -9.535156 30.109375 -13.890625 C 30.109375 -18.992188 28.332031 -22.875 24.78125 -25.53125 C 22.375 -27.351562 19.597656 -28.265625 16.453125 -28.265625 Z M 16.453125 -0.828125 C 11.972656 -0.828125 9.097656 -3.222656 7.828125 -8.015625 C 7.398438 -9.710938 7.1875 -11.671875 7.1875 -13.890625 C 7.1875 -21.242188 9.40625 -25.507812 13.84375 -26.6875 C 14.625 -26.875 15.445312 -26.96875 16.3125 -26.96875 C 22.394531 -26.90625 25.453125 -22.609375 25.484375 -14.078125 C 25.484375 -7.347656 23.613281 -3.164062 19.875 -1.53125 C 18.820312 -1.0625 17.679688 -0.828125 16.453125 -0.828125 Z M 16.453125 -0.828125 "/></g></g></g><g fill="#ffffff" fill-opacity="1"><g transform="translate(41.597349, 266.778719)"><g><path d="M 25.390625 -2.125 C 25.390625 -0.832031 25.570312 -0.09375 25.9375 0.09375 C 26.15625 0.1875 26.453125 0.234375 26.828125 0.234375 L 26.828125 -8.53125 L 25.703125 -8.53125 C 24.128906 -3.425781 20.984375 -0.859375 16.265625 -0.828125 C 12.242188 -0.828125 9.507812 -2.851562 8.0625 -6.90625 C 7.351562 -8.882812 7 -11.210938 7 -13.890625 C 7 -19.671875 8.585938 -23.597656 11.765625 -25.671875 C 13.148438 -26.535156 14.695312 -26.96875 16.40625 -26.96875 C 20.257812 -26.96875 23.050781 -25.144531 24.78125 -21.5 C 25.09375 -20.84375 25.359375 -20.175781 25.578125 -19.5 L 26.6875 -19.5 L 26.546875 -28.03125 C 25.867188 -28.03125 25.453125 -27.8125 25.296875 -27.375 C 25.203125 -27.007812 25.15625 -26.410156 25.15625 -25.578125 C 24.257812 -26.472656 22.726562 -27.195312 20.5625 -27.75 C 19.144531 -28.09375 17.695312 -28.265625 16.21875 -28.265625 C 11.332031 -28.265625 7.59375 -26.457031 5 -22.84375 C 3.207031 -20.28125 2.3125 -17.328125 2.3125 -13.984375 C 2.3125 -9.941406 3.5625 -6.546875 6.0625 -3.796875 C 8.71875 -0.953125 12.179688 0.46875 16.453125 0.46875 C 19.566406 0.4375 22.546875 -0.425781 25.390625 -2.125 Z M 25.390625 -2.125 "/></g></g></g><g fill="#ffffff" fill-opacity="1"><g transform="translate(75.382422, 266.778719)"><g><path d="M 23.4375 -19.453125 L 23.203125 -27.796875 L 1.859375 -27.796875 L 1.859375 -26.59375 L 5.5625 -26.59375 L 5.5625 -1.203125 L 1.859375 -1.203125 L 1.859375 0 L 23.203125 0 L 23.4375 -8.34375 L 22.515625 -8.34375 L 21.859375 -6.15625 C 21.085938 -3.53125 19.945312 -1.957031 18.4375 -1.4375 C 17.976562 -1.28125 17.484375 -1.203125 16.953125 -1.203125 L 9.546875 -1.203125 L 9.546875 -13.671875 L 19.09375 -13.671875 L 19.09375 -15.015625 L 9.546875 -15.015625 L 9.546875 -26.59375 L 16.953125 -26.59375 C 19.179688 -26.59375 20.773438 -25.09375 21.734375 -22.09375 C 21.785156 -21.90625 21.828125 -21.753906 21.859375 -21.640625 L 22.515625 -19.453125 Z M 23.4375 -19.453125 "/></g></g></g><g fill="#ffffff" fill-opacity="1"><g transform="translate(106.018446, 266.778719)"><g><path d="M 28.390625 0 C 28.390625 -0.675781 28.144531 -1.0625 27.65625 -1.15625 C 27.5 -1.1875 27.34375 -1.203125 27.1875 -1.203125 L 25.625 -1.203125 L 15.015625 -27.796875 L 13.296875 -27.796875 L 2.921875 -1.203125 L 0 -1.203125 L 0 0 L 8.25 0 C 8.25 -0.675781 8 -1.0625 7.5 -1.15625 C 7.34375 -1.1875 7.191406 -1.203125 7.046875 -1.203125 L 4.765625 -1.203125 L 8.25 -10.1875 L 17.921875 -10.1875 L 21.40625 -1.203125 L 18.390625 -1.203125 L 18.390625 0 Z M 17.421875 -11.53125 L 8.75 -11.53125 L 13.0625 -22.75 Z M 17.421875 -11.53125 "/></g></g></g><g fill="#ffffff" fill-opacity="1"><g transform="translate(139.294118, 266.778719)"><g><path d="M 21.03125 -26.59375 L 24.96875 -26.59375 L 24.96875 -5.84375 L 7.359375 -27.796875 L 0.921875 -27.796875 L 0.921875 -26.59375 L 4.625 -26.59375 L 4.625 -1.203125 L 0.921875 -1.203125 L 0.921875 0 L 10.421875 0 C 10.421875 -0.675781 10.175781 -1.0625 9.6875 -1.15625 C 9.53125 -1.1875 9.375 -1.203125 9.21875 -1.203125 L 6.484375 -1.203125 L 6.484375 -22.65625 L 24.6875 0.234375 L 26.828125 -0.234375 L 26.828125 -26.59375 L 30.53125 -26.59375 L 30.53125 -27.796875 L 21.03125 -27.796875 Z M 21.03125 -26.59375 "/></g></g></g><g fill="#ffffff" fill-opacity="1"><g transform="translate(175.163123, 266.778719)"><g><path d="M 14.875 0.234375 L 24.40625 -26.59375 L 26.734375 -26.59375 L 26.734375 -27.796875 L 18.953125 -27.796875 L 18.953125 -26.59375 L 22.65625 -26.59375 L 14.921875 -4.71875 L 6.53125 -26.59375 L 10.234375 -26.59375 L 10.234375 -27.796875 L -0.234375 -27.796875 L -0.234375 -26.59375 L 2.546875 -26.59375 L 11.34375 -3.203125 C 12.03125 -1.378906 12.617188 -0.328125 13.109375 -0.046875 C 13.421875 0.140625 13.820312 0.234375 14.3125 0.234375 Z M 14.875 0.234375 "/></g></g></g><g fill="#ffffff" fill-opacity="1"><g transform="translate(206.771653, 266.778719)"><g><path d="M 16.453125 -28.265625 C 12.742188 -28.265625 9.5625 -27.039062 6.90625 -24.59375 C 4 -21.90625 2.546875 -18.398438 2.546875 -14.078125 C 2.546875 -9.078125 4.257812 -5.21875 7.6875 -2.5 C 10.1875 -0.519531 13.0625 0.46875 16.3125 0.46875 C 19.945312 0.46875 23.078125 -0.769531 25.703125 -3.25 C 28.640625 -5.988281 30.109375 -9.535156 30.109375 -13.890625 C 30.109375 -18.992188 28.332031 -22.875 24.78125 -25.53125 C 22.375 -27.351562 19.597656 -28.265625 16.453125 -28.265625 Z M 16.453125 -0.828125 C 11.972656 -0.828125 9.097656 -3.222656 7.828125 -8.015625 C 7.398438 -9.710938 7.1875 -11.671875 7.1875 -13.890625 C 7.1875 -21.242188 9.40625 -25.507812 13.84375 -26.6875 C 14.625 -26.875 15.445312 -26.96875 16.3125 -26.96875 C 22.394531 -26.90625 25.453125 -22.609375 25.484375 -14.078125 C 25.484375 -7.347656 23.613281 -3.164062 19.875 -1.53125 C 18.820312 -1.0625 17.679688 -0.828125 16.453125 -0.828125 Z M 16.453125 -0.828125 "/></g></g></g><g fill="#ffffff" fill-opacity="1"><g transform="translate(244.307786, 266.778719)"><g><path d="M 18.671875 0 C 18.671875 -0.675781 18.421875 -1.0625 17.921875 -1.15625 C 17.773438 -1.1875 17.625 -1.203125 17.46875 -1.203125 L 14.96875 -1.203125 L 14.96875 -11.53125 L 21.953125 -25.296875 C 22.671875 -26.128906 23.503906 -26.5625 24.453125 -26.59375 C 25.140625 -26.59375 25.53125 -26.835938 25.625 -27.328125 C 25.65625 -27.484375 25.671875 -27.640625 25.671875 -27.796875 L 17.421875 -27.796875 L 17.421875 -26.59375 L 21.125 -26.59375 L 14.078125 -13.109375 L 6.71875 -26.59375 L 10.234375 -26.59375 L 10.234375 -27.796875 L -0.234375 -27.796875 L -0.234375 -26.59375 L 2.3125 -26.59375 L 11.03125 -11.078125 L 11.03125 -1.203125 L 7.3125 -1.203125 L 7.3125 0 Z M 18.671875 0 "/></g></g></g><g fill="#ffffff" fill-opacity="1"><g transform="translate(274.851198, 266.778719)"><g><path d="M 28.390625 0 C 28.390625 -0.675781 28.144531 -1.0625 27.65625 -1.15625 C 27.5 -1.1875 27.34375 -1.203125 27.1875 -1.203125 L 25.625 -1.203125 L 15.015625 -27.796875 L 13.296875 -27.796875 L 2.921875 -1.203125 L 0 -1.203125 L 0 0 L 8.25 0 C 8.25 -0.675781 8 -1.0625 7.5 -1.15625 C 7.34375 -1.1875 7.191406 -1.203125 7.046875 -1.203125 L 4.765625 -1.203125 L 8.25 -10.1875 L 17.921875 -10.1875 L 21.40625 -1.203125 L 18.390625 -1.203125 L 18.390625 0 Z M 17.421875 -11.53125 L 8.75 -11.53125 L 13.0625 -22.75 Z M 17.421875 -11.53125 "/></g></g></g><g fill="#ffffff" fill-opacity="1"><g transform="translate(308.12687, 266.778719)"><g><path d="M 19.21875 -12.515625 L 19.21875 -11.296875 L 23.390625 -11.296875 L 23.390625 -4.078125 C 21.847656 -2.222656 19.78125 -1.1875 17.1875 -0.96875 C 16.9375 -0.9375 16.691406 -0.921875 16.453125 -0.921875 C 10.304688 -0.984375 7.21875 -5.304688 7.1875 -13.890625 C 7.1875 -21.242188 9.40625 -25.507812 13.84375 -26.6875 C 14.625 -26.875 15.445312 -26.96875 16.3125 -26.96875 C 19.488281 -26.96875 21.785156 -26.085938 23.203125 -24.328125 C 24.128906 -23.117188 24.960938 -21.234375 25.703125 -18.671875 L 26.921875 -18.671875 L 26.6875 -27.65625 L 22.65625 -26.828125 C 20.707031 -27.785156 18.640625 -28.265625 16.453125 -28.265625 C 12.742188 -28.265625 9.5625 -27.039062 6.90625 -24.59375 C 4 -21.90625 2.546875 -18.398438 2.546875 -14.078125 C 2.546875 -9.140625 4.304688 -5.28125 7.828125 -2.5 C 10.390625 -0.519531 13.265625 0.46875 16.453125 0.46875 C 18.765625 0.46875 20.863281 -0.0390625 22.75 -1.0625 C 22.988281 -1.1875 23.1875 -1.3125 23.34375 -1.4375 L 27.28125 0 L 27.28125 -11.296875 L 30.765625 -11.296875 L 30.765625 -12.515625 Z M 19.21875 -12.515625 "/></g></g></g><g fill="#ffffff" fill-opacity="1"><g transform="translate(345.153611, 266.778719)"><g><path d="M 23.4375 -19.453125 L 23.203125 -27.796875 L 1.859375 -27.796875 L 1.859375 -26.59375 L 5.5625 -26.59375 L 5.5625 -1.203125 L 1.859375 -1.203125 L 1.859375 0 L 23.203125 0 L 23.4375 -8.34375 L 22.515625 -8.34375 L 21.859375 -6.15625 C 21.085938 -3.53125 19.945312 -1.957031 18.4375 -1.4375 C 17.976562 -1.28125 17.484375 -1.203125 16.953125 -1.203125 L 9.546875 -1.203125 L 9.546875 -13.671875 L 19.09375 -13.671875 L 19.09375 -15.015625 L 9.546875 -15.015625 L 9.546875 -26.59375 L 16.953125 -26.59375 C 19.179688 -26.59375 20.773438 -25.09375 21.734375 -22.09375 C 21.785156 -21.90625 21.828125 -21.753906 21.859375 -21.640625 L 22.515625 -19.453125 Z M 23.4375 -19.453125 "/></g></g></g><g fill="#ffffff" fill-opacity="1"><g transform="translate(96.657466, 313.397281)"><g><path d="M 11.09375 2.734375 C 7.96875 2.734375 5.554688 1.90625 3.859375 0.25 C 2.160156 -1.40625 1.3125 -3.554688 1.3125 -6.203125 C 1.3125 -8.617188 1.90625 -10.976562 3.09375 -13.28125 C 4.289062 -15.582031 5.800781 -17.703125 7.625 -19.640625 C 9.113281 -21.210938 10.820312 -22.578125 12.75 -23.734375 C 14.675781 -24.890625 16.695312 -25.789062 18.8125 -26.4375 C 20.9375 -27.082031 23.015625 -27.40625 25.046875 -27.40625 C 26.640625 -27.40625 28.082031 -27.1875 29.375 -26.75 C 30.675781 -26.3125 31.703125 -25.628906 32.453125 -24.703125 C 33.210938 -23.773438 33.59375 -22.566406 33.59375 -21.078125 C 33.59375 -19.753906 33.273438 -18.523438 32.640625 -17.390625 C 32.015625 -16.253906 31.175781 -15.265625 30.125 -14.421875 C 29.070312 -13.578125 27.910156 -12.914062 26.640625 -12.4375 C 25.378906 -11.957031 24.101562 -11.71875 22.8125 -11.71875 C 21.125 -11.71875 19.703125 -12.101562 18.546875 -12.875 C 17.398438 -13.644531 16.828125 -14.625 16.828125 -15.8125 C 16.828125 -17.320312 17.796875 -18.8125 19.734375 -20.28125 C 20.066406 -20.53125 20.332031 -20.65625 20.53125 -20.65625 C 20.664062 -20.65625 20.734375 -20.597656 20.734375 -20.484375 C 20.734375 -20.203125 20.507812 -19.976562 20.0625 -19.8125 C 18.488281 -18.550781 17.703125 -17.273438 17.703125 -15.984375 C 17.703125 -15.054688 18.125 -14.273438 18.96875 -13.640625 C 19.8125 -13.003906 20.863281 -12.6875 22.125 -12.6875 C 23.25 -12.6875 24.378906 -12.925781 25.515625 -13.40625 C 26.660156 -13.882812 27.707031 -14.53125 28.65625 -15.34375 C 29.613281 -16.15625 30.378906 -17.070312 30.953125 -18.09375 C 31.535156 -19.125 31.828125 -20.203125 31.828125 -21.328125 C 31.828125 -23.160156 31.207031 -24.492188 29.96875 -25.328125 C 28.738281 -26.171875 27.164062 -26.59375 25.25 -26.59375 C 23.082031 -26.59375 20.9375 -26.1875 18.8125 -25.375 C 16.695312 -24.5625 14.710938 -23.4375 12.859375 -22 C 11.003906 -20.570312 9.347656 -18.929688 7.890625 -17.078125 C 4.960938 -13.390625 3.5 -9.929688 3.5 -6.703125 C 3.5 -4.984375 3.890625 -3.523438 4.671875 -2.328125 C 5.460938 -1.140625 6.550781 -0.238281 7.9375 0.375 C 9.332031 1 10.929688 1.3125 12.734375 1.3125 C 15.398438 1.3125 17.984375 0.726562 20.484375 -0.4375 C 22.984375 -1.601562 25.117188 -3.171875 26.890625 -5.140625 C 27.367188 -5.648438 27.722656 -5.90625 27.953125 -5.90625 C 28.117188 -5.90625 28.203125 -5.773438 28.203125 -5.515625 C 28.203125 -5.179688 28.046875 -4.859375 27.734375 -4.546875 C 26.785156 -3.535156 25.648438 -2.59375 24.328125 -1.71875 C 23.003906 -0.851562 21.585938 -0.0820312 20.078125 0.59375 C 18.578125 1.269531 17.050781 1.796875 15.5 2.171875 C 13.957031 2.546875 12.488281 2.734375 11.09375 2.734375 Z M 11.09375 2.734375 "/></g></g></g><g fill="#ffffff" fill-opacity="1"><g transform="translate(127.244071, 313.397281)"><g><path d="M 8.59375 0.203125 C 7.382812 0.203125 6.554688 -0.109375 6.109375 -0.734375 C 5.660156 -1.367188 5.4375 -2.21875 5.4375 -3.28125 C 5.4375 -4.46875 5.800781 -5.875 6.53125 -7.5 C 6.8125 -8.144531 7.109375 -8.726562 7.421875 -9.25 C 7.734375 -9.769531 8.054688 -10.253906 8.390625 -10.703125 C 8.273438 -10.679688 8.175781 -10.671875 8.09375 -10.671875 C 8.007812 -10.671875 7.925781 -10.671875 7.84375 -10.671875 C 7.164062 -10.671875 6.601562 -11.144531 6.15625 -12.09375 L 3.03125 -8.046875 C 1.375 -5.890625 0.363281 -4.8125 0 -4.8125 C -0.132812 -4.8125 -0.203125 -4.863281 -0.203125 -4.96875 C -0.203125 -5.113281 -0.132812 -5.296875 0 -5.515625 C 0.0820312 -5.691406 0.25 -5.921875 0.5 -6.203125 C 1.570312 -7.429688 2.554688 -8.648438 3.453125 -9.859375 C 4.359375 -11.066406 5.101562 -12.25 5.6875 -13.40625 C 6.332031 -15.851562 7.148438 -17.078125 8.140625 -17.078125 C 8.785156 -17.078125 9.109375 -16.78125 9.109375 -16.1875 C 9.109375 -15.65625 8.753906 -14.953125 8.046875 -14.078125 C 7.378906 -13.203125 7.046875 -12.753906 7.046875 -12.734375 C 7.046875 -12.140625 7.476562 -11.84375 8.34375 -11.84375 C 8.851562 -11.84375 9.414062 -12.023438 10.03125 -12.390625 L 11.125 -13.0625 C 11.1875 -13.09375 11.269531 -13.109375 11.375 -13.109375 C 11.71875 -13.109375 12.015625 -12.96875 12.265625 -12.6875 C 12.515625 -12.40625 12.597656 -12.15625 12.515625 -11.9375 L 9.609375 -8.265625 C 7.804688 -5.960938 6.90625 -4.109375 6.90625 -2.703125 C 6.90625 -1.429688 7.523438 -0.796875 8.765625 -0.796875 C 9.609375 -0.796875 10.515625 -1.046875 11.484375 -1.546875 C 12.453125 -2.054688 13.394531 -2.679688 14.3125 -3.421875 C 15.226562 -4.171875 15.992188 -4.898438 16.609375 -5.609375 L 17.625 -6.78125 C 17.675781 -6.84375 17.742188 -6.914062 17.828125 -7 C 17.910156 -7.082031 17.984375 -7.125 18.046875 -7.125 C 18.242188 -7.125 18.34375 -7.023438 18.34375 -6.828125 C 18.34375 -6.773438 18.3125 -6.675781 18.25 -6.53125 C 18.195312 -6.394531 18.097656 -6.242188 17.953125 -6.078125 L 16.609375 -4.546875 C 15.960938 -3.816406 15.164062 -3.078125 14.21875 -2.328125 C 13.28125 -1.585938 12.3125 -0.976562 11.3125 -0.5 C 10.320312 -0.03125 9.414062 0.203125 8.59375 0.203125 Z M 8.59375 0.203125 "/></g></g></g><g fill="#ffffff" fill-opacity="1"><g transform="translate(143.843402, 313.397281)"><g><path d="M 1.984375 0.46875 C 0.710938 0.46875 0.078125 -0.332031 0.078125 -1.9375 C 0.078125 -2.550781 0.265625 -3.285156 0.640625 -4.140625 C 1.023438 -5.003906 1.570312 -5.914062 2.28125 -6.875 C 2.28125 -6.875 2.023438 -6.632812 1.515625 -6.15625 C 1.015625 -5.675781 0.441406 -5.070312 -0.203125 -4.34375 C -0.316406 -4.226562 -0.457031 -4.171875 -0.625 -4.171875 C -0.738281 -4.171875 -0.796875 -4.242188 -0.796875 -4.390625 C -0.796875 -4.523438 -0.671875 -4.757812 -0.421875 -5.09375 L 5.390625 -11.9375 C 6.117188 -12.769531 6.921875 -13.1875 7.796875 -13.1875 C 8.441406 -13.1875 8.765625 -12.9375 8.765625 -12.4375 C 8.765625 -12.238281 8.679688 -12.054688 8.515625 -11.890625 C 7.984375 -11.378906 7.328125 -10.660156 6.546875 -9.734375 C 5.773438 -8.804688 5.023438 -7.804688 4.296875 -6.734375 C 3.566406 -5.671875 2.957031 -4.65625 2.46875 -3.6875 C 1.976562 -2.71875 1.734375 -1.9375 1.734375 -1.34375 C 1.734375 -0.84375 1.898438 -0.59375 2.234375 -0.59375 C 2.429688 -0.59375 2.738281 -0.664062 3.15625 -0.8125 C 3.582031 -0.96875 4.144531 -1.289062 4.84375 -1.78125 C 5.550781 -2.28125 6.394531 -3.050781 7.375 -4.09375 C 7.539062 -4.257812 7.988281 -4.765625 8.71875 -5.609375 C 9.457031 -6.453125 10.441406 -7.660156 11.671875 -9.234375 C 13.867188 -11.960938 15.304688 -13.328125 15.984375 -13.328125 C 16.910156 -13.328125 17.414062 -12.945312 17.5 -12.1875 C 17.550781 -11.925781 16.957031 -11.097656 15.71875 -9.703125 C 14.125 -7.753906 13.03125 -6.359375 12.4375 -5.515625 C 11.34375 -3.921875 10.796875 -2.671875 10.796875 -1.765625 C 10.796875 -1.148438 11.003906 -0.84375 11.421875 -0.84375 C 11.847656 -0.84375 12.390625 -1.046875 13.046875 -1.453125 C 13.703125 -1.859375 14.394531 -2.378906 15.125 -3.015625 C 15.863281 -3.648438 16.578125 -4.3125 17.265625 -5 C 17.953125 -5.6875 18.546875 -6.320312 19.046875 -6.90625 C 19.222656 -7.101562 19.394531 -7.203125 19.5625 -7.203125 C 19.726562 -7.203125 19.8125 -7.117188 19.8125 -6.953125 C 19.8125 -6.898438 19.796875 -6.816406 19.765625 -6.703125 C 19.742188 -6.585938 19.660156 -6.460938 19.515625 -6.328125 C 19.066406 -5.816406 18.488281 -5.1875 17.78125 -4.4375 C 17.082031 -3.695312 16.328125 -2.960938 15.515625 -2.234375 C 14.703125 -1.503906 13.914062 -0.898438 13.15625 -0.421875 C 12.394531 0.0546875 11.75 0.296875 11.21875 0.296875 C 10.570312 0.296875 10.007812 0.117188 9.53125 -0.234375 C 9.050781 -0.585938 8.8125 -1.070312 8.8125 -1.6875 C 8.8125 -2.300781 8.910156 -2.925781 9.109375 -3.5625 C 9.304688 -4.195312 9.457031 -4.738281 9.5625 -5.1875 C 8.25 -3.632812 7.09375 -2.453125 6.09375 -1.640625 C 5.09375 -0.828125 4.253906 -0.273438 3.578125 0.015625 C 2.910156 0.316406 2.378906 0.46875 1.984375 0.46875 Z M 1.984375 0.46875 "/></g></g></g><g fill="#ffffff" fill-opacity="1"><g transform="translate(161.748777, 313.397281)"><g><path d="M 9.3125 -14.5 C 8.832031 -14.5 8.414062 -14.648438 8.0625 -14.953125 C 7.71875 -15.265625 7.546875 -15.617188 7.546875 -16.015625 C 7.546875 -16.804688 8.078125 -17.203125 9.140625 -17.203125 C 9.535156 -17.203125 9.929688 -17.066406 10.328125 -16.796875 C 10.722656 -16.535156 10.921875 -16.207031 10.921875 -15.8125 C 10.921875 -15.46875 10.738281 -15.160156 10.375 -14.890625 C 10.007812 -14.628906 9.65625 -14.5 9.3125 -14.5 Z M 1.515625 0.46875 C 0.898438 0.46875 0.390625 0.265625 -0.015625 -0.140625 C -0.421875 -0.554688 -0.625 -1.28125 -0.625 -2.3125 C -0.625 -2.90625 -0.488281 -3.585938 -0.21875 -4.359375 C 0.0390625 -5.128906 0.375 -5.910156 0.78125 -6.703125 C 1.1875 -7.492188 1.585938 -8.195312 1.984375 -8.8125 C 3.554688 -11.363281 4.847656 -12.65625 5.859375 -12.6875 C 6.109375 -12.6875 6.414062 -12.582031 6.78125 -12.375 C 7.144531 -12.164062 7.328125 -11.929688 7.328125 -11.671875 C 7.328125 -11.671875 6.257812 -10.296875 4.125 -7.546875 C 2.019531 -4.816406 0.96875 -2.878906 0.96875 -1.734375 C 0.96875 -0.828125 1.320312 -0.375 2.03125 -0.375 C 2.476562 -0.375 3.054688 -0.5625 3.765625 -0.9375 C 4.484375 -1.320312 5.234375 -1.804688 6.015625 -2.390625 C 6.804688 -2.984375 7.5625 -3.617188 8.28125 -4.296875 C 9 -4.972656 9.582031 -5.59375 10.03125 -6.15625 C 10.3125 -6.519531 10.554688 -6.769531 10.765625 -6.90625 C 10.984375 -7.050781 11.117188 -7.125 11.171875 -7.125 C 11.285156 -7.125 11.34375 -7.039062 11.34375 -6.875 C 11.34375 -6.726562 11.179688 -6.441406 10.859375 -6.015625 C 10.535156 -5.597656 10.09375 -5.109375 9.53125 -4.546875 C 8.851562 -3.878906 8.109375 -3.148438 7.296875 -2.359375 C 6.484375 -1.578125 5.597656 -0.910156 4.640625 -0.359375 C 3.679688 0.191406 2.640625 0.46875 1.515625 0.46875 Z M 1.515625 0.46875 "/></g></g></g><g fill="#ffffff" fill-opacity="1"><g transform="translate(171.270218, 313.397281)"><g><path d="M 4.84375 0.078125 C 3.519531 0.078125 2.539062 -0.351562 1.90625 -1.21875 C 1.28125 -2.09375 0.769531 -3.300781 0.375 -4.84375 C -0.125 -4.34375 -0.472656 -4.09375 -0.671875 -4.09375 C -0.816406 -4.09375 -0.890625 -4.203125 -0.890625 -4.421875 C -0.890625 -4.585938 -0.816406 -4.742188 -0.671875 -4.890625 C -0.671875 -4.890625 -0.316406 -5.320312 0.390625 -6.1875 C 1.109375 -7.0625 2.328125 -8.285156 4.046875 -9.859375 L 9.359375 -14.84375 C 10.085938 -15.539062 10.671875 -16.070312 11.109375 -16.4375 C 11.546875 -16.800781 11.863281 -16.984375 12.0625 -16.984375 C 12.957031 -16.984375 13.40625 -16.648438 13.40625 -15.984375 C 13.40625 -15.640625 13.222656 -15.242188 12.859375 -14.796875 C 12.578125 -14.460938 12.375 -14.203125 12.25 -14.015625 C 12.125 -13.835938 12.046875 -13.734375 12.015625 -13.703125 C 11.503906 -12.828125 11.039062 -11.265625 10.625 -9.015625 C 10.3125 -7.359375 10.039062 -5.992188 9.8125 -4.921875 C 9.59375 -3.859375 9.414062 -3.085938 9.28125 -2.609375 C 10.457031 -2.640625 11.617188 -3.003906 12.765625 -3.703125 C 13.921875 -4.410156 15.160156 -5.566406 16.484375 -7.171875 C 16.535156 -7.222656 16.617188 -7.304688 16.734375 -7.421875 C 16.847656 -7.535156 16.960938 -7.59375 17.078125 -7.59375 C 17.242188 -7.59375 17.328125 -7.519531 17.328125 -7.375 C 17.328125 -7.238281 17.285156 -7.097656 17.203125 -6.953125 C 17.117188 -6.816406 17.035156 -6.691406 16.953125 -6.578125 C 16.078125 -5.535156 15.257812 -4.679688 14.5 -4.015625 C 13.738281 -3.359375 12.9375 -2.835938 12.09375 -2.453125 C 11.25 -2.078125 10.253906 -1.765625 9.109375 -1.515625 L 7.75 -0.625 C 7.382812 -0.375 6.945312 -0.191406 6.4375 -0.078125 C 5.9375 0.0234375 5.40625 0.078125 4.84375 0.078125 Z M 5.359375 -2.0625 C 6.003906 -2.0625 6.535156 -2.21875 6.953125 -2.53125 C 7.265625 -2.695312 7.566406 -3.164062 7.859375 -3.9375 C 8.160156 -4.707031 8.445312 -5.671875 8.71875 -6.828125 C 8.945312 -7.816406 9.125 -8.78125 9.25 -9.71875 C 9.375 -10.65625 9.492188 -11.5625 9.609375 -12.4375 L 9.78125 -13.875 C 9.132812 -13.394531 8.316406 -12.703125 7.328125 -11.796875 C 6.347656 -10.898438 5.378906 -9.960938 4.421875 -8.984375 C 3.472656 -7.992188 2.859375 -7.265625 2.578125 -6.796875 C 2.296875 -6.335938 2.140625 -6 2.109375 -5.78125 C 1.992188 -4.65625 2.265625 -3.753906 2.921875 -3.078125 C 3.585938 -2.398438 4.398438 -2.0625 5.359375 -2.0625 Z M 5.359375 -2.0625 "/></g></g></g><g fill="#ffffff" fill-opacity="1"><g transform="translate(186.394999, 313.397281)"><g><path d="M 2.15625 0.546875 C 1.25 0.546875 0.429688 0.257812 -0.296875 -0.3125 C -1.023438 -0.894531 -1.390625 -1.660156 -1.390625 -2.609375 C -1.390625 -4.609375 -0.164062 -6.882812 2.28125 -9.4375 C 4.78125 -12.03125 7.015625 -13.328125 8.984375 -13.328125 C 9.628906 -13.328125 10.15625 -13.148438 10.5625 -12.796875 C 10.96875 -12.441406 11.171875 -12.015625 11.171875 -11.515625 C 11.171875 -9.929688 9.921875 -8.382812 7.421875 -6.875 C 5.203125 -5.519531 3.332031 -4.84375 1.8125 -4.84375 C 1.582031 -4.84375 1.382812 -4.875 1.21875 -4.9375 C 0.800781 -4.175781 0.59375 -3.375 0.59375 -2.53125 C 0.59375 -1.070312 1.28125 -0.34375 2.65625 -0.34375 C 4.0625 -0.34375 5.875 -1.28125 8.09375 -3.15625 C 9.8125 -4.539062 11.273438 -6.003906 12.484375 -7.546875 C 12.734375 -7.878906 12.957031 -8.046875 13.15625 -8.046875 C 13.320312 -8.046875 13.40625 -7.960938 13.40625 -7.796875 C 13.40625 -7.628906 13.289062 -7.390625 13.0625 -7.078125 C 12.28125 -6.035156 11.4375 -5.078125 10.53125 -4.203125 C 9.632812 -3.335938 8.664062 -2.539062 7.625 -1.8125 C 5.46875 -0.238281 3.644531 0.546875 2.15625 0.546875 Z M 2.40625 -5.78125 C 3.46875 -5.78125 4.859375 -6.3125 6.578125 -7.375 C 7.140625 -7.769531 7.691406 -8.210938 8.234375 -8.703125 C 8.785156 -9.191406 9.238281 -9.6875 9.59375 -10.1875 C 9.945312 -10.695312 10.125 -11.148438 10.125 -11.546875 C 10.125 -11.910156 9.828125 -12.09375 9.234375 -12.09375 C 8.390625 -12.09375 7.207031 -11.460938 5.6875 -10.203125 C 4.957031 -9.585938 4.253906 -8.910156 3.578125 -8.171875 C 2.910156 -7.441406 2.335938 -6.671875 1.859375 -5.859375 C 2.023438 -5.804688 2.207031 -5.78125 2.40625 -5.78125 Z M 2.40625 -5.78125 "/></g></g></g><g fill="#ffffff" fill-opacity="1"><g transform="translate(197.222483, 313.397281)"><g/></g></g><g fill="#ffffff" fill-opacity="1"><g transform="translate(205.564289, 313.397281)"><g><path d="M 11.765625 4 C 10.609375 4 9.175781 3.3125 7.46875 1.9375 C 6.257812 1.738281 5.222656 1.476562 4.359375 1.15625 C 3.503906 0.832031 2.796875 0.445312 2.234375 0 C 1.441406 -0.675781 0.75 -1.578125 0.15625 -2.703125 C -0.425781 -3.828125 -0.71875 -4.90625 -0.71875 -5.9375 C -0.71875 -6.726562 -0.535156 -7.429688 -0.171875 -8.046875 C 0.671875 -9.535156 1.738281 -10.28125 3.03125 -10.28125 C 4.019531 -10.28125 4.597656 -9.453125 4.765625 -7.796875 C 4.960938 -6.253906 5.125 -5.023438 5.25 -4.109375 C 5.375 -3.191406 5.476562 -2.59375 5.5625 -2.3125 C 5.988281 -0.9375 6.707031 0.226562 7.71875 1.1875 C 8.894531 1.4375 10.171875 1.5625 11.546875 1.5625 C 14.585938 1.5625 17.5 0.984375 20.28125 -0.171875 C 21.457031 -0.671875 22.609375 -1.328125 23.734375 -2.140625 C 24.859375 -2.960938 25.785156 -3.863281 26.515625 -4.84375 C 27.242188 -5.832031 27.609375 -6.789062 27.609375 -7.71875 C 27.609375 -9.039062 26.441406 -10.066406 24.109375 -10.796875 L 16.6875 -12.484375 C 15.175781 -12.816406 13.960938 -13.410156 13.046875 -14.265625 C 12.128906 -15.128906 11.671875 -16.109375 11.671875 -17.203125 C 11.671875 -18.890625 12.726562 -20.578125 14.84375 -22.265625 C 15.90625 -23.128906 17.148438 -23.863281 18.578125 -24.46875 C 20.015625 -25.070312 21.523438 -25.535156 23.109375 -25.859375 C 24.703125 -26.179688 26.234375 -26.34375 27.703125 -26.34375 C 29.773438 -26.34375 31.550781 -26.019531 33.03125 -25.375 C 34.507812 -24.726562 35.429688 -23.785156 35.796875 -22.546875 C 35.878906 -22.265625 35.921875 -21.957031 35.921875 -21.625 C 35.921875 -19.90625 35.0625 -18.710938 33.34375 -18.046875 C 32.300781 -17.617188 31.414062 -17.40625 30.6875 -17.40625 C 30.238281 -17.40625 29.890625 -17.488281 29.640625 -17.65625 C 29.578125 -17.71875 29.546875 -17.789062 29.546875 -17.875 C 29.546875 -18.070312 29.941406 -18.1875 30.734375 -18.21875 C 31.210938 -18.238281 31.601562 -18.273438 31.90625 -18.328125 C 32.21875 -18.390625 32.445312 -18.445312 32.59375 -18.5 C 33.65625 -19.0625 34.1875 -19.894531 34.1875 -21 C 34.1875 -21.5625 34.03125 -22.148438 33.71875 -22.765625 C 32.851562 -24.367188 30.675781 -25.171875 27.1875 -25.171875 C 25.925781 -25.171875 24.617188 -25.035156 23.265625 -24.765625 C 21.921875 -24.492188 20.644531 -24.097656 19.4375 -23.578125 C 18.226562 -23.066406 17.203125 -22.414062 16.359375 -21.625 C 14.898438 -20.28125 14.171875 -19.070312 14.171875 -18 C 14.171875 -17.1875 14.566406 -16.460938 15.359375 -15.828125 C 16.160156 -15.191406 17.378906 -14.722656 19.015625 -14.421875 L 23.984375 -13.484375 C 25.898438 -13.117188 27.445312 -12.578125 28.625 -11.859375 C 29.800781 -11.148438 30.390625 -10.0625 30.390625 -8.59375 C 30.390625 -7.300781 30.066406 -6.09375 29.421875 -4.96875 C 28.773438 -3.84375 27.910156 -2.835938 26.828125 -1.953125 C 25.742188 -1.066406 24.515625 -0.332031 23.140625 0.25 C 20.023438 1.625 16.34375 2.3125 12.09375 2.3125 C 11.5625 2.3125 11.03125 2.296875 10.5 2.265625 C 9.96875 2.242188 9.445312 2.207031 8.9375 2.15625 C 9.332031 2.375 9.832031 2.59375 10.4375 2.8125 C 11.039062 3.039062 11.734375 3.253906 12.515625 3.453125 C 12.597656 3.484375 12.640625 3.539062 12.640625 3.625 C 12.640625 3.875 12.347656 4 11.765625 4 Z M 6.203125 0.765625 C 5.441406 -0.078125 4.847656 -0.953125 4.421875 -1.859375 C 3.804688 -3.265625 3.34375 -4.992188 3.03125 -7.046875 C 2.8125 -8.535156 2.570312 -9.28125 2.3125 -9.28125 C 2.09375 -9.28125 1.789062 -9.109375 1.40625 -8.765625 C 1.03125 -8.429688 0.84375 -7.71875 0.84375 -6.625 C 0.84375 -4.488281 1.601562 -2.628906 3.125 -1.046875 C 3.875 -0.265625 4.898438 0.335938 6.203125 0.765625 Z M 6.203125 0.765625 "/></g></g></g><g fill="#ffffff" fill-opacity="1"><g transform="translate(237.077767, 313.397281)"><g><path d="M -1.140625 0.203125 C -1.953125 0.203125 -2.359375 -0.03125 -2.359375 -0.5 C -2.359375 -0.78125 -2.191406 -1.234375 -1.859375 -1.859375 C -0.566406 -4.160156 0.585938 -6.203125 1.609375 -7.984375 C 2.640625 -9.773438 3.550781 -11.285156 4.34375 -12.515625 C 7.6875 -17.890625 10.046875 -20.800781 11.421875 -21.25 C 11.484375 -21.25 11.523438 -21.253906 11.546875 -21.265625 C 11.578125 -21.273438 11.609375 -21.28125 11.640625 -21.28125 C 12.003906 -21.28125 12.242188 -20.988281 12.359375 -20.40625 C 12.265625 -19.8125 10.800781 -17.675781 7.96875 -14 C 6.476562 -12.113281 5.316406 -10.554688 4.484375 -9.328125 C 3.660156 -8.109375 3.148438 -7.21875 2.953125 -6.65625 C 3.878906 -7.332031 4.875 -8.050781 5.9375 -8.8125 C 7.007812 -9.570312 8.050781 -10.296875 9.0625 -10.984375 C 10.070312 -11.671875 10.984375 -12.234375 11.796875 -12.671875 C 12.617188 -13.109375 13.253906 -13.351562 13.703125 -13.40625 C 13.753906 -13.40625 13.820312 -13.410156 13.90625 -13.421875 C 13.988281 -13.441406 14.046875 -13.453125 14.078125 -13.453125 C 14.867188 -13.453125 15.265625 -13.085938 15.265625 -12.359375 C 15.265625 -12.160156 15.007812 -11.722656 14.5 -11.046875 C 14 -10.367188 13.226562 -9.328125 12.1875 -7.921875 C 10.332031 -5.453125 9.40625 -3.597656 9.40625 -2.359375 C 9.40625 -1.710938 9.644531 -1.390625 10.125 -1.390625 C 10.625 -1.421875 11.203125 -1.644531 11.859375 -2.0625 C 12.523438 -2.488281 13.191406 -3.007812 13.859375 -3.625 C 14.535156 -4.238281 15.148438 -4.847656 15.703125 -5.453125 C 16.253906 -6.054688 16.671875 -6.53125 16.953125 -6.875 C 17.203125 -7.125 17.394531 -7.25 17.53125 -7.25 C 17.644531 -7.25 17.703125 -7.191406 17.703125 -7.078125 C 17.703125 -6.859375 17.59375 -6.59375 17.375 -6.28125 C 17.03125 -5.863281 16.523438 -5.316406 15.859375 -4.640625 C 15.203125 -3.960938 14.488281 -3.28125 13.71875 -2.59375 C 12.945312 -1.90625 12.21875 -1.328125 11.53125 -0.859375 C 10.84375 -0.398438 10.328125 -0.171875 9.984375 -0.171875 C 8.328125 -0.171875 7.5 -1.140625 7.5 -3.078125 C 7.5 -4.171875 8.003906 -5.601562 9.015625 -7.375 C 9.410156 -8.050781 9.816406 -8.722656 10.234375 -9.390625 C 10.660156 -10.066406 11.085938 -10.742188 11.515625 -11.421875 C 7.910156 -9.617188 4.648438 -6.960938 1.734375 -3.453125 C 1.367188 -2.953125 0.988281 -2.410156 0.59375 -1.828125 C 0.195312 -1.253906 -0.148438 -0.769531 -0.453125 -0.375 C -0.765625 0.0078125 -0.992188 0.203125 -1.140625 0.203125 Z M -1.140625 0.203125 "/></g></g></g><g fill="#ffffff" fill-opacity="1"><g transform="translate(252.91876, 313.397281)"><g><path d="M 9.3125 -14.5 C 8.832031 -14.5 8.414062 -14.648438 8.0625 -14.953125 C 7.71875 -15.265625 7.546875 -15.617188 7.546875 -16.015625 C 7.546875 -16.804688 8.078125 -17.203125 9.140625 -17.203125 C 9.535156 -17.203125 9.929688 -17.066406 10.328125 -16.796875 C 10.722656 -16.535156 10.921875 -16.207031 10.921875 -15.8125 C 10.921875 -15.46875 10.738281 -15.160156 10.375 -14.890625 C 10.007812 -14.628906 9.65625 -14.5 9.3125 -14.5 Z M 1.515625 0.46875 C 0.898438 0.46875 0.390625 0.265625 -0.015625 -0.140625 C -0.421875 -0.554688 -0.625 -1.28125 -0.625 -2.3125 C -0.625 -2.90625 -0.488281 -3.585938 -0.21875 -4.359375 C 0.0390625 -5.128906 0.375 -5.910156 0.78125 -6.703125 C 1.1875 -7.492188 1.585938 -8.195312 1.984375 -8.8125 C 3.554688 -11.363281 4.847656 -12.65625 5.859375 -12.6875 C 6.109375 -12.6875 6.414062 -12.582031 6.78125 -12.375 C 7.144531 -12.164062 7.328125 -11.929688 7.328125 -11.671875 C 7.328125 -11.671875 6.257812 -10.296875 4.125 -7.546875 C 2.019531 -4.816406 0.96875 -2.878906 0.96875 -1.734375 C 0.96875 -0.828125 1.320312 -0.375 2.03125 -0.375 C 2.476562 -0.375 3.054688 -0.5625 3.765625 -0.9375 C 4.484375 -1.320312 5.234375 -1.804688 6.015625 -2.390625 C 6.804688 -2.984375 7.5625 -3.617188 8.28125 -4.296875 C 9 -4.972656 9.582031 -5.59375 10.03125 -6.15625 C 10.3125 -6.519531 10.554688 -6.769531 10.765625 -6.90625 C 10.984375 -7.050781 11.117188 -7.125 11.171875 -7.125 C 11.285156 -7.125 11.34375 -7.039062 11.34375 -6.875 C 11.34375 -6.726562 11.179688 -6.441406 10.859375 -6.015625 C 10.535156 -5.597656 10.09375 -5.109375 9.53125 -4.546875 C 8.851562 -3.878906 8.109375 -3.148438 7.296875 -2.359375 C 6.484375 -1.578125 5.597656 -0.910156 4.640625 -0.359375 C 3.679688 0.191406 2.640625 0.46875 1.515625 0.46875 Z M 1.515625 0.46875 "/></g></g></g><g fill="#ffffff" fill-opacity="1"><g transform="translate(262.440201, 313.397281)"><g><path d="M -2.4375 7.96875 C -3.625 7.320312 -4.21875 6.097656 -4.21875 4.296875 C -4.21875 2.359375 -2.628906 -0.957031 0.546875 -5.65625 C 3.578125 -10.175781 5.6875 -12.617188 6.875 -12.984375 C 6.988281 -13.015625 7.085938 -13.035156 7.171875 -13.046875 C 7.253906 -13.054688 7.335938 -13.0625 7.421875 -13.0625 C 7.898438 -13.0625 8.140625 -12.546875 8.140625 -11.515625 C 8.335938 -11.703125 8.679688 -11.890625 9.171875 -12.078125 C 9.660156 -12.265625 10.164062 -12.410156 10.6875 -12.515625 C 11.207031 -12.628906 11.59375 -12.703125 11.84375 -12.734375 C 13 -12.785156 13.960938 -12.507812 14.734375 -11.90625 C 15.503906 -11.300781 15.890625 -10.507812 15.890625 -9.53125 C 15.890625 -7.25 14.523438 -5.039062 11.796875 -2.90625 C 9.328125 -0.96875 7.140625 0 5.234375 0 C 3.960938 0 3.085938 -0.0664062 2.609375 -0.203125 C 1.941406 -0.398438 1.253906 -0.921875 0.546875 -1.765625 C 0.234375 -1.515625 -0.101562 -1.085938 -0.46875 -0.484375 C -0.832031 0.117188 -1.175781 0.78125 -1.5 1.5 C -1.820312 2.21875 -2.085938 2.925781 -2.296875 3.625 C -2.503906 4.320312 -2.609375 4.910156 -2.609375 5.390625 C -2.609375 5.867188 -2.515625 6.269531 -2.328125 6.59375 C -2.148438 6.914062 -1.976562 7.21875 -1.8125 7.5 C -1.8125 7.53125 -1.800781 7.550781 -1.78125 7.5625 C -1.769531 7.582031 -1.765625 7.59375 -1.765625 7.59375 C -1.765625 7.726562 -1.84375 7.84375 -2 7.9375 C -2.15625 8.039062 -2.300781 8.050781 -2.4375 7.96875 Z M 4.671875 -1.1875 C 6.253906 -1.1875 8.070312 -1.984375 10.125 -3.578125 C 12.539062 -5.492188 13.75 -7.617188 13.75 -9.953125 C 13.75 -11.015625 13.085938 -11.546875 11.765625 -11.546875 C 10.554688 -11.546875 9.429688 -11.28125 8.390625 -10.75 C 8.109375 -10.632812 7.648438 -10.265625 7.015625 -9.640625 C 6.390625 -9.023438 5.554688 -8.1875 4.515625 -7.125 C 2.296875 -4.820312 1.1875 -3.347656 1.1875 -2.703125 C 1.1875 -2.191406 1.648438 -1.78125 2.578125 -1.46875 C 3.191406 -1.28125 3.890625 -1.1875 4.671875 -1.1875 Z M 4.671875 -1.1875 "/></g></g></g><path fill="#ffffff" d="M 301.847656 306.148438 C 302.09375 306.148438 302.335938 306.195312 302.5625 306.289062 C 302.792969 306.386719 302.996094 306.519531 303.171875 306.695312 C 303.347656 306.871094 303.484375 307.074219 303.578125 307.304688 C 303.675781 307.535156 303.722656 307.773438 303.722656 308.023438 C 303.722656 308.269531 303.675781 308.511719 303.578125 308.738281 C 303.484375 308.96875 303.347656 309.171875 303.171875 309.347656 C 302.996094 309.523438 302.792969 309.660156 302.5625 309.753906 C 302.335938 309.851562 302.09375 309.898438 301.847656 309.898438 C 301.597656 309.898438 301.359375 309.851562 301.128906 309.753906 C 300.898438 309.660156 300.695312 309.523438 300.519531 309.347656 C 300.34375 309.171875 300.210938 308.96875 300.113281 308.738281 C 300.019531 308.511719 299.972656 308.269531 299.972656 308.023438 C 299.972656 307.773438 300.019531 307.535156 300.113281 307.304688 C 300.210938 307.074219 300.34375 306.871094 300.519531 306.695312 C 300.695312 306.519531 300.898438 306.386719 301.128906 306.289062 C 301.359375 306.195312 301.597656 306.148438 301.847656 306.148438 Z M 309.347656 306.148438 C 309.59375 306.148438 309.835938 306.195312 310.066406 306.289062 C 310.292969 306.386719 310.496094 306.519531 310.671875 306.695312 C 310.847656 306.871094 310.984375 307.074219 311.078125 307.304688 C 311.175781 307.535156 311.222656 307.773438 311.222656 308.023438 C 311.222656 308.269531 311.175781 308.511719 311.078125 308.738281 C 310.984375 308.96875 310.847656 309.171875 310.671875 309.347656 C 310.496094 309.523438 310.292969 309.660156 310.066406 309.753906 C 309.835938 309.851562 309.59375 309.898438 309.347656 309.898438 C 309.097656 309.898438 308.859375 309.851562 308.628906 309.753906 C 308.398438 309.660156 308.195312 309.523438 308.019531 309.347656 C 307.84375 309.171875 307.710938 308.96875 307.613281 308.738281 C 307.519531 308.511719 307.472656 308.269531 307.472656 308.023438 C 307.472656 307.773438 307.519531 307.535156 307.613281 307.304688 C 307.710938 307.074219 307.84375 306.871094 308.019531 306.695312 C 308.195312 306.519531 308.398438 306.386719 308.628906 306.289062 C 308.859375 306.195312 309.097656 306.148438 309.347656 306.148438 Z M 316.847656 306.148438 C 317.097656 306.148438 317.335938 306.195312 317.566406 306.289062 C 317.792969 306.386719 317.996094 306.519531 318.171875 306.695312 C 318.347656 306.871094 318.484375 307.074219 318.578125 307.304688 C 318.675781 307.535156 318.722656 307.773438 318.722656 308.023438 C 318.722656 308.269531 318.675781 308.511719 318.578125 308.738281 C 318.484375 308.96875 318.347656 309.171875 318.171875 309.347656 C 317.996094 309.523438 317.792969 309.660156 317.566406 309.753906 C 317.335938 309.851562 317.097656 309.898438 316.847656 309.898438 C 316.597656 309.898438 316.359375 309.851562 316.128906 309.753906 C 315.898438 309.660156 315.695312 309.523438 315.519531 309.347656 C 315.34375 309.171875 315.210938 308.96875 315.113281 308.738281 C 315.019531 308.511719 314.972656 308.269531 314.972656 308.023438 C 314.972656 307.773438 315.019531 307.535156 315.113281 307.304688 C 315.210938 307.074219 315.34375 306.871094 315.519531 306.695312 C 315.695312 306.519531 315.898438 306.386719 316.128906 306.289062 C 316.359375 306.195312 316.597656 306.148438 316.847656 306.148438 Z M 324.347656 306.148438 C 324.597656 306.148438 324.835938 306.195312 325.066406 306.289062 C 325.296875 306.386719 325.496094 306.519531 325.671875 306.695312 C 325.847656 306.871094 325.984375 307.074219 326.078125 307.304688 C 326.175781 307.535156 326.222656 307.773438 326.222656 308.023438 C 326.222656 308.269531 326.175781 308.511719 326.078125 308.738281 C 325.984375 308.96875 325.847656 309.171875 325.671875 309.347656 C 325.496094 309.523438 325.296875 309.660156 325.066406 309.753906 C 324.835938 309.851562 324.597656 309.898438 324.347656 309.898438 C 324.097656 309.898438 323.859375 309.851562 323.628906 309.753906 C 323.398438 309.660156 323.199219 309.523438 323.023438 309.347656 C 322.847656 309.171875 322.710938 308.96875 322.613281 308.738281 C 322.519531 308.511719 322.472656 308.269531 322.472656 308.023438 C 322.472656 307.773438 322.519531 307.535156 322.613281 307.304688 C 322.710938 307.074219 322.847656 306.871094 323.023438 306.695312 C 323.199219 306.519531 323.398438 306.386719 323.628906 306.289062 C 323.859375 306.195312 324.097656 306.148438 324.347656 306.148438 Z M 331.847656 306.148438 C 332.097656 306.148438 332.335938 306.195312 332.566406 306.289062 C 332.796875 306.386719 333 306.519531 333.175781 306.695312 C 333.351562 306.871094 333.484375 307.074219 333.582031 307.304688 C 333.675781 307.535156 333.722656 307.773438 333.722656 308.023438 C 333.722656 308.269531 333.675781 308.511719 333.582031 308.738281 C 333.484375 308.96875 333.351562 309.171875 333.175781 309.347656 C 333 309.523438 332.796875 309.660156 332.566406 309.753906 C 332.335938 309.851562 332.097656 309.898438 331.847656 309.898438 C 331.597656 309.898438 331.359375 309.851562 331.128906 309.753906 C 330.902344 309.660156 330.699219 309.523438 330.523438 309.347656 C 330.347656 309.171875 330.210938 308.96875 330.117188 308.738281 C 330.019531 308.511719 329.972656 308.269531 329.972656 308.023438 C 329.972656 307.773438 330.019531 307.535156 330.117188 307.304688 C 330.210938 307.074219 330.347656 306.871094 330.523438 306.695312 C 330.699219 306.519531 330.902344 306.386719 331.128906 306.289062 C 331.359375 306.195312 331.597656 306.148438 331.847656 306.148438 Z M 339.347656 306.148438 C 339.597656 306.148438 339.835938 306.195312 340.066406 306.289062 C 340.296875 306.386719 340.5 306.519531 340.675781 306.695312 C 340.851562 306.871094 340.984375 307.074219 341.082031 307.304688 C 341.175781 307.535156 341.222656 307.773438 341.222656 308.023438 C 341.222656 308.269531 341.175781 308.511719 341.082031 308.738281 C 340.984375 308.96875 340.851562 309.171875 340.675781 309.347656 C 340.5 309.523438 340.296875 309.660156 340.066406 309.753906 C 339.835938 309.851562 339.597656 309.898438 339.347656 309.898438 C 339.097656 309.898438 338.859375 309.851562 338.628906 309.753906 C 338.402344 309.660156 338.199219 309.523438 338.023438 309.347656 C 337.847656 309.171875 337.710938 308.96875 337.617188 308.738281 C 337.519531 308.511719 337.472656 308.269531 337.472656 308.023438 C 337.472656 307.773438 337.519531 307.535156 337.617188 307.304688 C 337.710938 307.074219 337.847656 306.871094 338.023438 306.695312 C 338.199219 306.519531 338.402344 306.386719 338.628906 306.289062 C 338.859375 306.195312 339.097656 306.148438 339.347656 306.148438 Z M 346.847656 306.148438 C 347.097656 306.148438 347.335938 306.195312 347.566406 306.289062 C 347.796875 306.386719 348 306.519531 348.175781 306.695312 C 348.351562 306.871094 348.484375 307.074219 348.582031 307.304688 C 348.675781 307.535156 348.722656 307.773438 348.722656 308.023438 C 348.722656 308.269531 348.675781 308.511719 348.582031 308.738281 C 348.484375 308.96875 348.351562 309.171875 348.175781 309.347656 C 348 309.523438 347.796875 309.660156 347.566406 309.753906 C 347.335938 309.851562 347.097656 309.898438 346.847656 309.898438 C 346.601562 309.898438 346.359375 309.851562 346.132812 309.753906 C 345.902344 309.660156 345.699219 309.523438 345.523438 309.347656 C 345.347656 309.171875 345.210938 308.96875 345.117188 308.738281 C 345.019531 308.511719 344.972656 308.269531 344.972656 308.023438 C 344.972656 307.773438 345.019531 307.535156 345.117188 307.304688 C 345.210938 307.074219 345.347656 306.871094 345.523438 306.695312 C 345.699219 306.519531 345.902344 306.386719 346.132812 306.289062 C 346.359375 306.195312 346.601562 306.148438 346.847656 306.148438 Z M 354.347656 306.148438 C 354.597656 306.148438 354.835938 306.195312 355.066406 306.289062 C 355.296875 306.386719 355.5 306.519531 355.675781 306.695312 C 355.851562 306.871094 355.988281 307.074219 356.082031 307.304688 C 356.175781 307.535156 356.222656 307.773438 356.222656 308.023438 C 356.222656 308.269531 356.175781 308.511719 356.082031 308.738281 C 355.988281 308.96875 355.851562 309.171875 355.675781 309.347656 C 355.5 309.523438 355.296875 309.660156 355.066406 309.753906 C 354.835938 309.851562 354.597656 309.898438 354.347656 309.898438 C 354.101562 309.898438 353.859375 309.851562 353.632812 309.753906 C 353.402344 309.660156 353.199219 309.523438 353.023438 309.347656 C 352.847656 309.171875 352.710938 308.96875 352.617188 308.738281 C 352.519531 308.511719 352.472656 308.269531 352.472656 308.023438 C 352.472656 307.773438 352.519531 307.535156 352.617188 307.304688 C 352.710938 307.074219 352.847656 306.871094 353.023438 306.695312 C 353.199219 306.519531 353.402344 306.386719 353.632812 306.289062 C 353.859375 306.195312 354.101562 306.148438 354.347656 306.148438 Z M 361.847656 306.148438 L 361.851562 306.148438 C 362.097656 306.148438 362.335938 306.195312 362.566406 306.289062 C 362.796875 306.386719 363 306.519531 363.175781 306.695312 C 363.351562 306.871094 363.488281 307.074219 363.582031 307.304688 C 363.675781 307.535156 363.726562 307.773438 363.726562 308.023438 C 363.726562 308.269531 363.675781 308.511719 363.582031 308.738281 C 363.488281 308.96875 363.351562 309.171875 363.175781 309.347656 C 363 309.523438 362.796875 309.660156 362.566406 309.753906 C 362.335938 309.851562 362.097656 309.898438 361.851562 309.898438 L 361.847656 309.898438 C 361.601562 309.898438 361.363281 309.851562 361.132812 309.753906 C 360.902344 309.660156 360.699219 309.523438 360.523438 309.347656 C 360.347656 309.171875 360.210938 308.96875 360.117188 308.738281 C 360.023438 308.511719 359.972656 308.269531 359.972656 308.023438 C 359.972656 307.773438 360.023438 307.535156 360.117188 307.304688 C 360.210938 307.074219 360.347656 306.871094 360.523438 306.695312 C 360.699219 306.519531 360.902344 306.386719 361.132812 306.289062 C 361.363281 306.195312 361.601562 306.148438 361.847656 306.148438 Z M 369.351562 306.148438 C 369.597656 306.148438 369.835938 306.195312 370.066406 306.289062 C 370.296875 306.386719 370.5 306.519531 370.675781 306.695312 C 370.851562 306.871094 370.988281 307.074219 371.082031 307.304688 C 371.175781 307.535156 371.226562 307.773438 371.226562 308.023438 C 371.226562 308.269531 371.175781 308.511719 371.082031 308.738281 C 370.988281 308.96875 370.851562 309.171875 370.675781 309.347656 C 370.5 309.523438 370.296875 309.660156 370.066406 309.753906 C 369.835938 309.851562 369.597656 309.898438 369.351562 309.898438 C 369.101562 309.898438 368.863281 309.851562 368.632812 309.753906 C 368.402344 309.660156 368.199219 309.523438 368.023438 309.347656 C 367.847656 309.171875 367.710938 308.96875 367.617188 308.738281 C 367.523438 308.511719 367.476562 308.269531 367.476562 308.023438 C 367.476562 307.773438 367.523438 307.535156 367.617188 307.304688 C 367.710938 307.074219 367.847656 306.871094 368.023438 306.695312 C 368.199219 306.519531 368.402344 306.386719 368.632812 306.289062 C 368.863281 306.195312 369.101562 306.148438 369.351562 306.148438 Z M 369.351562 306.148438 " fill-opacity="1" fill-rule="nonzero"/><path fill="#ffffff" d="M 10.773438 304.355469 C 11.023438 304.355469 11.261719 304.402344 11.492188 304.5 C 11.722656 304.59375 11.925781 304.730469 12.101562 304.90625 C 12.277344 305.082031 12.410156 305.285156 12.507812 305.511719 C 12.601562 305.742188 12.648438 305.980469 12.648438 306.230469 C 12.648438 306.480469 12.601562 306.71875 12.507812 306.949219 C 12.410156 307.179688 12.277344 307.382812 12.101562 307.558594 C 11.925781 307.734375 11.722656 307.867188 11.492188 307.964844 C 11.261719 308.058594 11.023438 308.105469 10.773438 308.105469 C 10.527344 308.105469 10.285156 308.058594 10.054688 307.964844 C 9.828125 307.867188 9.625 307.734375 9.449219 307.558594 C 9.273438 307.382812 9.136719 307.179688 9.042969 306.949219 C 8.945312 306.71875 8.898438 306.480469 8.898438 306.230469 C 8.898438 305.980469 8.945312 305.742188 9.042969 305.511719 C 9.136719 305.285156 9.273438 305.082031 9.449219 304.90625 C 9.625 304.730469 9.828125 304.59375 10.054688 304.5 C 10.285156 304.402344 10.527344 304.355469 10.773438 304.355469 Z M 18.273438 304.355469 C 18.523438 304.355469 18.761719 304.402344 18.992188 304.5 C 19.222656 304.59375 19.425781 304.730469 19.601562 304.90625 C 19.777344 305.082031 19.910156 305.285156 20.007812 305.511719 C 20.101562 305.742188 20.148438 305.980469 20.148438 306.230469 C 20.148438 306.480469 20.101562 306.71875 20.007812 306.949219 C 19.910156 307.179688 19.777344 307.382812 19.601562 307.558594 C 19.425781 307.734375 19.222656 307.867188 18.992188 307.964844 C 18.761719 308.058594 18.523438 308.105469 18.273438 308.105469 C 18.027344 308.105469 17.785156 308.058594 17.558594 307.964844 C 17.328125 307.867188 17.125 307.734375 16.949219 307.558594 C 16.773438 307.382812 16.636719 307.179688 16.542969 306.949219 C 16.445312 306.71875 16.398438 306.480469 16.398438 306.230469 C 16.398438 305.980469 16.445312 305.742188 16.542969 305.511719 C 16.636719 305.285156 16.773438 305.082031 16.949219 304.90625 C 17.125 304.730469 17.328125 304.59375 17.558594 304.5 C 17.785156 304.402344 18.027344 304.355469 18.273438 304.355469 Z M 25.773438 304.355469 C 26.023438 304.355469 26.261719 304.402344 26.492188 304.5 C 26.722656 304.59375 26.925781 304.730469 27.101562 304.90625 C 27.277344 305.082031 27.414062 305.285156 27.507812 305.511719 C 27.601562 305.742188 27.648438 305.980469 27.648438 306.230469 C 27.648438 306.480469 27.601562 306.71875 27.507812 306.949219 C 27.414062 307.179688 27.277344 307.382812 27.101562 307.558594 C 26.925781 307.734375 26.722656 307.867188 26.492188 307.964844 C 26.261719 308.058594 26.023438 308.105469 25.773438 308.105469 C 25.527344 308.105469 25.285156 308.058594 25.058594 307.964844 C 24.828125 307.867188 24.625 307.734375 24.449219 307.558594 C 24.273438 307.382812 24.136719 307.179688 24.042969 306.949219 C 23.949219 306.71875 23.898438 306.480469 23.898438 306.230469 C 23.898438 305.980469 23.949219 305.742188 24.042969 305.511719 C 24.136719 305.285156 24.273438 305.082031 24.449219 304.90625 C 24.625 304.730469 24.828125 304.59375 25.058594 304.5 C 25.285156 304.402344 25.527344 304.355469 25.773438 304.355469 Z M 33.273438 304.355469 L 33.277344 304.355469 C 33.523438 304.355469 33.761719 304.402344 33.992188 304.5 C 34.222656 304.59375 34.425781 304.730469 34.601562 304.90625 C 34.777344 305.082031 34.914062 305.285156 35.007812 305.511719 C 35.101562 305.742188 35.152344 305.980469 35.152344 306.230469 C 35.152344 306.480469 35.101562 306.71875 35.007812 306.949219 C 34.914062 307.179688 34.777344 307.382812 34.601562 307.558594 C 34.425781 307.734375 34.222656 307.867188 33.992188 307.964844 C 33.761719 308.058594 33.523438 308.105469 33.277344 308.105469 L 33.273438 308.105469 C 33.027344 308.105469 32.789062 308.058594 32.558594 307.964844 C 32.328125 307.867188 32.125 307.734375 31.949219 307.558594 C 31.773438 307.382812 31.636719 307.179688 31.542969 306.949219 C 31.449219 306.71875 31.398438 306.480469 31.398438 306.230469 C 31.398438 305.980469 31.449219 305.742188 31.542969 305.511719 C 31.636719 305.285156 31.773438 305.082031 31.949219 304.90625 C 32.125 304.730469 32.328125 304.59375 32.558594 304.5 C 32.789062 304.402344 33.027344 304.355469 33.273438 304.355469 Z M 40.777344 304.355469 C 41.023438 304.355469 41.265625 304.402344 41.492188 304.5 C 41.722656 304.59375 41.925781 304.730469 42.101562 304.90625 C 42.277344 305.082031 42.414062 305.285156 42.507812 305.511719 C 42.601562 305.742188 42.652344 305.980469 42.652344 306.230469 C 42.652344 306.480469 42.601562 306.71875 42.507812 306.949219 C 42.414062 307.179688 42.277344 307.382812 42.101562 307.558594 C 41.925781 307.734375 41.722656 307.867188 41.492188 307.964844 C 41.265625 308.058594 41.023438 308.105469 40.777344 308.105469 C 40.527344 308.105469 40.289062 308.058594 40.058594 307.964844 C 39.828125 307.867188 39.625 307.734375 39.449219 307.558594 C 39.273438 307.382812 39.136719 307.179688 39.042969 306.949219 C 38.949219 306.71875 38.902344 306.480469 38.902344 306.230469 C 38.902344 305.980469 38.949219 305.742188 39.042969 305.511719 C 39.136719 305.285156 39.273438 305.082031 39.449219 304.90625 C 39.625 304.730469 39.828125 304.59375 40.058594 304.5 C 40.289062 304.402344 40.527344 304.355469 40.777344 304.355469 Z M 48.277344 304.355469 C 48.523438 304.355469 48.765625 304.402344 48.992188 304.5 C 49.222656 304.59375 49.425781 304.730469 49.601562 304.90625 C 49.777344 305.082031 49.914062 305.285156 50.007812 305.511719 C 50.105469 305.742188 50.152344 305.980469 50.152344 306.230469 C 50.152344 306.480469 50.105469 306.71875 50.007812 306.949219 C 49.914062 307.179688 49.777344 307.382812 49.601562 307.558594 C 49.425781 307.734375 49.222656 307.867188 48.992188 307.964844 C 48.765625 308.058594 48.523438 308.105469 48.277344 308.105469 C 48.027344 308.105469 47.789062 308.058594 47.558594 307.964844 C 47.328125 307.867188 47.125 307.734375 46.949219 307.558594 C 46.773438 307.382812 46.640625 307.179688 46.542969 306.949219 C 46.449219 306.71875 46.402344 306.480469 46.402344 306.230469 C 46.402344 305.980469 46.449219 305.742188 46.542969 305.511719 C 46.640625 305.285156 46.773438 305.082031 46.949219 304.90625 C 47.125 304.730469 47.328125 304.59375 47.558594 304.5 C 47.789062 304.402344 48.027344 304.355469 48.277344 304.355469 Z M 55.777344 304.355469 C 56.027344 304.355469 56.265625 304.402344 56.496094 304.5 C 56.722656 304.59375 56.925781 304.730469 57.101562 304.90625 C 57.277344 305.082031 57.414062 305.285156 57.507812 305.511719 C 57.605469 305.742188 57.652344 305.980469 57.652344 306.230469 C 57.652344 306.480469 57.605469 306.71875 57.507812 306.949219 C 57.414062 307.179688 57.277344 307.382812 57.101562 307.558594 C 56.925781 307.734375 56.722656 307.867188 56.496094 307.964844 C 56.265625 308.058594 56.027344 308.105469 55.777344 308.105469 C 55.527344 308.105469 55.289062 308.058594 55.058594 307.964844 C 54.828125 307.867188 54.625 307.734375 54.449219 307.558594 C 54.273438 307.382812 54.140625 307.179688 54.042969 306.949219 C 53.949219 306.71875 53.902344 306.480469 53.902344 306.230469 C 53.902344 305.980469 53.949219 305.742188 54.042969 305.511719 C 54.140625 305.285156 54.273438 305.082031 54.449219 304.90625 C 54.625 304.730469 54.828125 304.59375 55.058594 304.5 C 55.289062 304.402344 55.527344 304.355469 55.777344 304.355469 Z M 63.277344 304.355469 C 63.527344 304.355469 63.765625 304.402344 63.996094 304.5 C 64.222656 304.59375 64.425781 304.730469 64.601562 304.90625 C 64.777344 305.082031 64.914062 305.285156 65.007812 305.511719 C 65.105469 305.742188 65.152344 305.980469 65.152344 306.230469 C 65.152344 306.480469 65.105469 306.71875 65.007812 306.949219 C 64.914062 307.179688 64.777344 307.382812 64.601562 307.558594 C 64.425781 307.734375 64.222656 307.867188 63.996094 307.964844 C 63.765625 308.058594 63.527344 308.105469 63.277344 308.105469 C 63.027344 308.105469 62.789062 308.058594 62.558594 307.964844 C 62.328125 307.867188 62.125 307.734375 61.949219 307.558594 C 61.773438 307.382812 61.640625 307.179688 61.542969 306.949219 C 61.449219 306.71875 61.402344 306.480469 61.402344 306.230469 C 61.402344 305.980469 61.449219 305.742188 61.542969 305.511719 C 61.640625 305.285156 61.773438 305.082031 61.949219 304.90625 C 62.125 304.730469 62.328125 304.59375 62.558594 304.5 C 62.789062 304.402344 63.027344 304.355469 63.277344 304.355469 Z M 70.777344 304.355469 C 71.027344 304.355469 71.265625 304.402344 71.496094 304.5 C 71.726562 304.59375 71.925781 304.730469 72.101562 304.90625 C 72.277344 305.082031 72.414062 305.285156 72.511719 305.511719 C 72.605469 305.742188 72.652344 305.980469 72.652344 306.230469 C 72.652344 306.480469 72.605469 306.71875 72.511719 306.949219 C 72.414062 307.179688 72.277344 307.382812 72.101562 307.558594 C 71.925781 307.734375 71.726562 307.867188 71.496094 307.964844 C 71.265625 308.058594 71.027344 308.105469 70.777344 308.105469 C 70.527344 308.105469 70.289062 308.058594 70.058594 307.964844 C 69.828125 307.867188 69.628906 307.734375 69.453125 307.558594 C 69.277344 307.382812 69.140625 307.179688 69.042969 306.949219 C 68.949219 306.71875 68.902344 306.480469 68.902344 306.230469 C 68.902344 305.980469 68.949219 305.742188 69.042969 305.511719 C 69.140625 305.285156 69.277344 305.082031 69.453125 304.90625 C 69.628906 304.730469 69.828125 304.59375 70.058594 304.5 C 70.289062 304.402344 70.527344 304.355469 70.777344 304.355469 Z M 78.277344 304.355469 C 78.527344 304.355469 78.765625 304.402344 78.996094 304.5 C 79.226562 304.59375 79.429688 304.730469 79.605469 304.90625 C 79.78125 305.082031 79.914062 305.285156 80.011719 305.511719 C 80.105469 305.742188 80.152344 305.980469 80.152344 306.230469 C 80.152344 306.480469 80.105469 306.71875 80.011719 306.949219 C 79.914062 307.179688 79.78125 307.382812 79.605469 307.558594 C 79.429688 307.734375 79.226562 307.867188 78.996094 307.964844 C 78.765625 308.058594 78.527344 308.105469 78.277344 308.105469 C 78.027344 308.105469 77.789062 308.058594 77.558594 307.964844 C 77.332031 307.867188 77.128906 307.734375 76.953125 307.558594 C 76.777344 307.382812 76.640625 307.179688 76.546875 306.949219 C 76.449219 306.71875 76.402344 306.480469 76.402344 306.230469 C 76.402344 305.980469 76.449219 305.742188 76.546875 305.511719 C 76.640625 305.285156 76.777344 305.082031 76.953125 304.90625 C 77.128906 304.730469 77.332031 304.59375 77.558594 304.5 C 77.789062 304.402344 78.027344 304.355469 78.277344 304.355469 Z M 78.277344 304.355469 " fill-opacity="1" fill-rule="nonzero"/></svg>